<?xml version="1.0" standalone="no"?>
<!DOCTYPE svg PUBLIC "-//W3C//DTD SVG 20010904//EN"
 "http://www.w3.org/TR/2001/REC-SVG-20010904/DTD/svg10.dtd">
<svg version="1.0" xmlns="http://www.w3.org/2000/svg"
 width="260.000000pt" height="260.000000pt" viewBox="0 0 260.000000 260.000000"
 preserveAspectRatio="xMidYMid meet">
<metadata>
Created by potrace 1.11, written by Peter Selinger 2001-2013
</metadata>
<g transform="translate(0.000000,260.000000) scale(0.100000,-0.100000)"
fill="#000000" stroke="none">
<path d="M0 1300 l0 -1300 1300 0 1300 0 0 1300 0 1300 -1300 0 -1300 0 0
-1300z m2160 -25 l0 -825 -825 0 -825 0 0 825 0 825 825 0 825 0 0 -825z"/>
<path d="M975 1785 c-23 -22 -25 -32 -25 -111 l0 -88 45 -42 c41 -38 45 -46
45 -88 0 -33 -4 -46 -14 -46 -10 0 -16 13 -18 38 -3 32 -7 37 -30 40 -28 3
-28 3 -28 -55 0 -77 18 -103 71 -103 53 0 76 25 84 93 11 90 -1 135 -52 185
-38 38 -44 49 -41 81 4 45 20 47 33 4 7 -25 15 -33 32 -33 21 0 23 5 23 50 0
41 -5 56 -25 75 -13 14 -36 25 -50 25 -14 0 -37 -11 -50 -25z"/>
<path d="M1173 1800 c-36 -15 -45 -69 -41 -256 3 -198 10 -214 79 -214 50 0
66 24 75 113 l7 67 -37 0 -36 0 0 -51 c0 -36 -4 -49 -12 -47 -14 5 -24 251
-13 296 9 35 25 16 25 -29 0 -38 1 -39 36 -39 36 0 36 1 30 31 -3 17 -6 45 -6
61 0 33 -39 78 -67 77 -10 0 -28 -4 -40 -9z"/>
<path d="M1345 1787 c-24 -20 -27 -31 -33 -122 -10 -152 -1 -289 22 -314 22
-24 73 -28 99 -8 27 19 40 119 34 257 -6 133 -18 184 -47 200 -28 15 -46 12
-75 -13z m55 -223 c0 -120 -3 -155 -12 -152 -10 3 -14 44 -16 148 -3 148 0
176 18 165 6 -4 10 -68 10 -161z"/>
<path d="M672 1568 c3 -263 -3 -246 85 -233 68 10 75 35 71 250 -4 209 -6 215
-100 215 l-58 0 2 -232z m92 136 c3 -9 6 -69 6 -134 0 -126 -4 -150 -26 -150
-11 0 -14 27 -14 143 0 79 3 147 7 150 11 11 20 8 27 -9z"/>
<path d="M860 1565 l0 -235 30 0 30 0 0 235 0 235 -30 0 -30 0 0 -235z"/>
<path d="M1480 1791 c0 -15 29 -349 36 -409 l6 -53 46 3 47 3 17 185 c9 102
17 206 17 233 1 45 0 47 -28 47 l-29 0 -6 -85 c-3 -47 -9 -124 -13 -172 l-7
-88 -11 170 -10 170 -32 3 c-18 2 -33 -1 -33 -7z"/>
<path d="M1670 1565 l0 -235 65 0 65 0 0 44 c0 43 -1 45 -32 48 -32 3 -33 4
-36 56 l-3 52 30 0 c30 0 31 1 31 45 0 43 -1 45 -30 45 -29 0 -30 2 -30 45 0
45 0 45 35 45 35 0 35 0 35 45 l0 45 -65 0 -65 0 0 -235z"/>
<path d="M1830 1565 l0 -235 30 0 30 0 0 90 c0 51 4 90 10 90 19 0 30 -40 30
-109 l0 -71 30 0 30 0 0 78 c0 57 -5 88 -19 115 -10 20 -15 37 -11 37 18 0 32
63 28 129 -5 93 -21 111 -100 111 l-58 0 0 -235z m96 121 c7 -39 -6 -88 -24
-94 -8 -2 -12 16 -12 62 0 51 3 66 15 66 8 0 17 -14 21 -34z"/>
<path d="M674 1188 c29 -128 56 -309 56 -366 l0 -72 30 0 30 0 0 93 c0 57 10
142 25 222 14 71 25 133 25 137 0 4 -13 8 -29 8 -32 0 -28 10 -48 -125 l-7
-50 -11 85 -10 85 -33 3 c-30 3 -32 1 -28 -20z"/>
<path d="M887 1198 c-26 -20 -37 -92 -36 -238 0 -154 11 -199 50 -212 36 -12
77 6 90 39 30 79 18 366 -18 405 -19 21 -62 24 -86 6z m51 -218 c-4 -193 -22
-202 -26 -13 -3 141 0 163 18 163 7 0 10 -50 8 -150z"/>
<path d="M1032 1007 c3 -217 10 -247 58 -262 26 -8 76 11 86 33 4 10 10 110
12 225 l4 207 -31 0 -31 0 0 -182 c0 -171 -7 -224 -27 -204 -4 4 -9 93 -11
197 l-4 189 -30 0 -30 0 4 -203z"/>
<path d="M1220 980 l0 -230 30 0 30 0 0 85 c0 48 4 85 10 85 18 0 30 -40 30
-104 l0 -66 30 0 30 0 0 73 c0 52 -5 84 -19 110 -10 20 -15 37 -11 37 14 0 30
61 30 110 0 99 -27 130 -116 130 l-44 0 0 -230z m95 120 c10 -32 -4 -100 -21
-100 -10 0 -14 15 -14 60 0 45 3 60 14 60 8 0 18 -9 21 -20z"/>
<path d="M1424 1196 c-16 -12 -20 -29 -22 -105 l-4 -91 47 -46 c42 -42 46 -50
43 -87 -4 -55 -26 -60 -34 -8 -6 35 -10 41 -30 41 -22 0 -24 -4 -24 -54 0 -70
22 -100 74 -100 55 0 70 22 74 109 5 98 -1 120 -48 163 -33 29 -40 42 -40 74
0 27 4 38 15 38 10 0 15 -10 15 -30 0 -27 3 -30 31 -30 l32 0 -6 51 c-4 29
-14 60 -23 70 -20 23 -72 25 -100 5z"/>
<path d="M1577 1203 c-4 -3 -7 -107 -7 -230 l0 -223 65 0 65 0 0 45 c0 43 -1
45 -30 45 -29 0 -30 1 -30 50 0 47 2 50 25 50 23 0 25 4 25 45 0 41 -2 45 -25
45 -23 0 -25 4 -25 45 0 43 1 45 30 45 29 0 30 2 30 45 l0 45 -58 0 c-32 0
-62 -3 -65 -7z"/>
<path d="M1729 1208 c0 -2 -1 -105 -2 -231 l-2 -227 63 0 62 0 0 45 c0 43 -1
45 -30 45 l-30 0 -2 183 -3 182 -27 3 c-16 2 -28 2 -29 0z"/>
<path d="M1870 980 l0 -230 30 0 30 0 0 90 c0 89 0 90 25 90 23 0 25 4 25 45
0 41 -2 45 -25 45 -23 0 -25 3 -25 50 0 49 1 50 30 50 29 0 30 2 30 45 l0 45
-60 0 -60 0 0 -230z"/>
</g>
</svg>
